# xmcd
#
# Track frame offsets:
#	150
#	19911
#	46188
#	87555
#	106372
#	120728
#	146772
#	170802
#
# Disc length: 2764 seconds
#
# Revision: 1
# Processed by: cddbd v1.5.2PL0 Copyright (c) Steve Scherf et al.
# Submitted via: audiograbber 1.83.01
#
DISCID=6f0aca08
DTITLE=Alvin Lee - Bellinzona piazza blues CD1
DYEAR=1900
DGENRE=
TTITLE0=Rock and Roll Music to The World
TTITLE1=Hear Me Calling
TTITLE2=I Can't Keep From Crying Sometimes
TTITLE3=How do You Do It?
TTITLE4=Don't Want You Woman
TTITLE5=While My Guitar Gently Weeps/Getting Nowhere Fast
TTITLE6=I don't Give a Damn
TTITLE7=I am Writing You a Letter
EXTD=
EXTT0=
EXTT1=
EXTT2=
EXTT3=
EXTT4=
EXTT5=
EXTT6=
EXTT7=
PLAYORDER=
